<svg id="Layer_2" data-name="Layer 2" xmlns="http://www.w3.org/2000/svg" xmlns:xlink="http://www.w3.org/1999/xlink" viewBox="0 0 422.45 537.59"><defs><style>.cls-1{fill:url(#linear-gradient);}.cls-2{fill:url(#linear-gradient-2);}.cls-3{fill:url(#linear-gradient-3);}.cls-4{fill:url(#linear-gradient-4);}.cls-5{fill:url(#linear-gradient-5);}</style><linearGradient id="linear-gradient" x1="400.89" y1="229.76" x2="433.4" y2="229.76" gradientUnits="userSpaceOnUse"><stop offset="0" stop-color="#f26222"/><stop offset="1" stop-color="#f9a45c"/></linearGradient><linearGradient id="linear-gradient-2" x1="163.7" y1="352.3" x2="416.89" y2="352.3" xlink:href="#linear-gradient"/><linearGradient id="linear-gradient-3" x1="148.51" y1="442.75" x2="330.69" y2="442.75" xlink:href="#linear-gradient"/><linearGradient id="linear-gradient-4" x1="75.07" y1="197.05" x2="500.93" y2="197.05" xlink:href="#linear-gradient"/><linearGradient id="linear-gradient-5" x1="380.06" y1="288.75" x2="441.64" y2="288.75" xlink:href="#linear-gradient"/></defs><path class="cls-1" d="M411.53,275.79c1.09-4.28,2.12-8.32,3.22-12.31s2.25-7.86,3-11.46c.16-.88.36-1.75.43-2.5a6.27,6.27,0,0,0,.07-1,7.76,7.76,0,0,0,0-1,17.67,17.67,0,0,0-.7-4c-.42-1.48-1-3.27-1.62-5.05-.31-.89-.58-1.79-.92-2.65s-.61-1.77-1-2.62c-1.33-3.47-2.77-6.81-4.42-10.48-.81-1.82-1.67-3.79-2.48-5.87a48.34,48.34,0,0,1-2.06-6.69,35.65,35.65,0,0,1-.84-7.09l0-.9c0-.33,0-.69,0-1a17.26,17.26,0,0,1,.14-1.81c.15-1.16.34-2.27.57-3.36a45.9,45.9,0,0,1,1.88-6.38,32.06,32.06,0,0,1,2.91-6L411.3,190c.51,2,1,4,1.53,6,.27,1,.52,1.91.82,2.8.16.44.29.87.44,1.26a5.48,5.48,0,0,0,.23.54l.27.61c.73,1.69,1.53,3.27,2.37,4.81s1.81,3,2.85,4.63,2.14,3.25,3.26,5.06A68.57,68.57,0,0,1,429,227.59a63.16,63.16,0,0,1,2.06,6.43,50.39,50.39,0,0,1,1.41,6.91,25.88,25.88,0,0,1-.22,8.3,16.64,16.64,0,0,1-.52,2.08,16.31,16.31,0,0,1-.7,2,31.48,31.48,0,0,1-1.6,3.34,58.2,58.2,0,0,1-7.87,10.67,61.06,61.06,0,0,1-4.67,4.57A30.77,30.77,0,0,1,411.53,275.79Z" transform="translate(-78.38 -19.09)"/><path class="cls-2" d="M171.7,248.06c3.37,19.24,9.87,37.06,17.07,55.28a119.05,119.05,0,0,1,3.94,14.55,111.61,111.61,0,0,1,2,15c.39,4.84.79,9.48,1.4,14.18s1.36,9.47,2,14.23,1.42,9.47,2.35,13.93,2.07,8.65,3.84,11.46l.44.73.43.78.2.38.12.25.77,1.64a12.42,12.42,0,0,0,1.26,2l.35.47.43.48a9.89,9.89,0,0,0,.9,1l1,1,1.13.95a63,63,0,0,0,10.94,6.87c4,2.09,8.26,3.95,12.54,5.77l6.54,2.59,6.77,2.49,27.09,10.1,13.51,5.15c4.54,1.65,9.09,3.27,13.58,4.83s8.93,3.09,13.29,4.27a87.73,87.73,0,0,0,13.08,2.6,127.65,127.65,0,0,0,27.29.18,90.75,90.75,0,0,0,13.23-2.34,50,50,0,0,0,11.92-4.63,25.64,25.64,0,0,0,8.7-7.61l.73-1.19.09-.15,0-.07.07-.16a1.13,1.13,0,0,0,.16-.33,3,3,0,0,1,.14-.39c0-.14.06-.33.1-.49a9,9,0,0,0,.16-1.17,48.34,48.34,0,0,0-.25-6.45,114.77,114.77,0,0,1-.62-15.08c.07-2.56.33-5.15.56-7.52s.49-4.85.76-7.27c1.14-9.69,2.48-19.51,5.25-29A105.38,105.38,0,0,1,402,343.39a125.55,125.55,0,0,1,6.86-12.93,129.19,129.19,0,0,0-7.58,27.75,213.67,213.67,0,0,0-1.74,28.58l0,7.22c0,2.46,0,4.71.14,7a114.54,114.54,0,0,0,1.78,13.84,50.18,50.18,0,0,1,.91,8,19,19,0,0,1-.13,2.45c-.05.44-.09.85-.17,1.3l-.33,1.36a9.19,9.19,0,0,1-.46,1.37L401,430l-.15.34-.12.25-1,2a36.34,36.34,0,0,1-12.05,12.31,62.59,62.59,0,0,1-14.7,6.77,100,100,0,0,1-15.2,3.45,125.09,125.09,0,0,1-15.29,1.35,132.09,132.09,0,0,1-15.38-.42,96,96,0,0,1-15.45-2.69c-5-1.26-9.77-2.79-14.45-4.32s-9.25-3.18-13.81-4.8l-13.67-5.11-27.26-10.41-6.8-2.65-6.92-2.89c-4.58-2.06-9.17-4.14-13.67-6.71a77,77,0,0,1-13.28-9.05,34.32,34.32,0,0,1-6.08-6.77,27,27,0,0,1-2.36-4.26l-.7-1.68-.06-.16s0,0,0,0,0,0,0,0,0,0,0-.07l-.15-.26-.28-.52a36.87,36.87,0,0,1-3.24-8.29,69.92,69.92,0,0,1-1.58-7.82c-.76-5.07-1.2-10-1.63-14.83s-.81-9.64-1.1-14.64-.38-10-.34-14.81c0-2.41,0-4.75-.08-7s-.29-4.58-.53-6.89a117.08,117.08,0,0,0-2.34-13.79c-1.06-4.51-2.55-9.23-3.68-14-.59-2.39-1.11-4.81-1.61-7.18s-1-4.76-1.44-7.16c-.92-4.82-1.65-9.69-2.12-14.55S171.72,252.92,171.7,248.06Z" transform="translate(-78.38 -19.09)"/><path class="cls-3" d="M156.51,328.83a268.25,268.25,0,0,1,6,26.22c1.69,8.77,3.23,17.68,4.24,26.67s1.6,18,1.74,27.14c.05,4.54,0,9.09-.17,13.64l-.13,3.41-.2,3.41c-.12,2.3-.29,4.5-.45,6.71-.31,4.42-.59,8.84-.81,13.24s-.46,8.79-.58,13.18l-.29,13.3q-.08,3.39-.23,6.83L165.5,486a9,9,0,0,0,.14,1.71,7.26,7.26,0,0,0,1.31,3.06,20.61,20.61,0,0,0,3.2,3.48c2.78,2.44,6.33,4.88,10,7.57,1.86,1.34,3.74,2.76,5.63,4.29l.7.56.63.49,1.26,1,2.5,1.94,2.51,1.94c.85.63,1.74,1.2,2.61,1.8,1.76,1.17,3.48,2.41,5.26,3.54a166.41,166.41,0,0,0,46.58,20.13c4.13,1,8.29,2,12.48,2.74s8.4,1.38,12.58,1.75l6.69.56,6.65.63c4.34.41,8.56.77,11.8.33.42,0,.77-.14,1.17-.2s.72-.19,1.09-.28l1-.37.51-.22.25-.11c.07,0,0,0,0,0a.18.18,0,0,0-.07,0c-.31.31.19,0,.55-.61a16.17,16.17,0,0,0,1.25-2.15,47.5,47.5,0,0,0,2.25-5.55c.67-2,1.32-4,1.91-6.09,1.2-4.15,2.22-8.41,3.2-12.7s1.87-8.62,2.73-13c1.73-8.69,3.26-17.46,4.75-26.25l2.13-13.22q.54-3.3,1-6.62l.45-3.32a26.63,26.63,0,0,0,.33-3.33,56.07,56.07,0,0,1,.47,6.72c.07,2.24.11,4.49.15,6.73q0,6.74-.11,13.46-.31,13.45-1.4,26.92a265.42,265.42,0,0,1-3.48,27c-.44,2.27-.92,4.55-1.52,6.85a60.16,60.16,0,0,1-2.26,7,26.87,26.87,0,0,1-1.82,3.78,15.26,15.26,0,0,1-1.43,2.08,10.2,10.2,0,0,1-1,1.13,9.17,9.17,0,0,1-1.4,1.16l-.41.28-.35.22-.49.27-1,.54c-.66.33-1.36.61-2.05.91s-1.4.5-2.11.7-1.41.4-2.09.52a43.63,43.63,0,0,1-7.85.78c-2.46.05-4.77,0-7.05-.09l-6.71-.28-6.67-.24a130,130,0,0,1-14-1.3c-4.63-.63-9.2-1.53-13.76-2.51a167.12,167.12,0,0,1-26.65-8.48,170.59,170.59,0,0,1-24.93-12.91c-2-1.27-3.88-2.65-5.82-4-1-.67-1.94-1.32-2.88-2l-2.77-2.17-5.44-4.29c-1.57-1.3-3.25-2.57-5-3.88-3.44-2.63-7.24-5.28-11.11-8.81a35.68,35.68,0,0,1-5.61-6.53,22.1,22.1,0,0,1-3.45-9.32,24.27,24.27,0,0,1-.13-4.95l.28-3.25c.17-2.17.32-4.34.45-6.54.25-4.4.54-8.92.9-13.44.69-9.05,1.75-18,3-26.93l.9-6.6.44-3.25.38-3.26c.51-4.35.87-8.72,1.24-13.09.61-8.75,1-17.55.91-26.37s-.42-17.66-.84-26.61l-.66-13.37Q157.15,335.51,156.51,328.83Z" transform="translate(-78.38 -19.09)"/><path class="cls-4" d="M186.62,329.68a19.75,19.75,0,0,1-7.85,6.83,15.12,15.12,0,0,1-10.52.49,32,32,0,0,1-9.38-5,87.88,87.88,0,0,1-8-6.85q-1.91-1.81-3.76-3.66c-1.24-1.22-2.47-2.45-3.68-3.73s-2.45-2.53-3.59-3.87-2.35-2.64-3.43-4a106.21,106.21,0,0,1-11.74-17.68,86.52,86.52,0,0,1-4.42-9.75,65.32,65.32,0,0,1-3.06-10.36,52.28,52.28,0,0,1-1.28-10.92,28.24,28.24,0,0,1,.56-5.79,21.52,21.52,0,0,1,.87-3c.36-1,.85-1.8,1.28-2.71a27.05,27.05,0,0,1,7.66-8.82,36.46,36.46,0,0,1,4.83-3.12,46.78,46.78,0,0,1,5.17-2.33,49.26,49.26,0,0,1,5.39-1.66c.92-.21,2-.37,3-.55a29.93,29.93,0,0,1,3.15-.15,21.68,21.68,0,0,1,6.24,1.16,42.81,42.81,0,0,1,5.24,2.34,40.1,40.1,0,0,0,8.76,3.66,27.28,27.28,0,0,0,9,.58,37.93,37.93,0,0,0,17.42-6.1,30.82,30.82,0,0,0,6.68-6.11,34.27,34.27,0,0,0,2.64-3.73c.4-.65.78-1.32,1.16-2s.74-1.45,1.2-2.27a123.17,123.17,0,0,1,12-18.14c8.88-11.34,19.17-21.27,29.91-30.5,2.69-2.29,5.41-4.54,8.11-6.75s5.48-4.46,8.36-6.63a132.11,132.11,0,0,1,18.41-11.77c3.25-1.69,6.59-3.22,10-4.62l2.55-1,2.49-.95c1.66-.63,3.38-1.24,5.11-1.83a107.47,107.47,0,0,1,21.6-5,101.48,101.48,0,0,1,11.16-.71c3.84,0,7.19.16,10.84.35a94.55,94.55,0,0,1,11.17,1.19,50.88,50.88,0,0,1,11.57,3.37A38.18,38.18,0,0,1,380,144.45a34.46,34.46,0,0,1,4.37,4.76c1.25,1.66,2.25,3.17,3.2,4.54,1.89,2.73,3.81,5.22,5.93,7.74l1.6,1.87,1.72,2,3.4,3.88c1.12,1.26,2.23,2.49,3.27,3.55a14,14,0,0,0,2.48,2.12l.14.08.39.15.8.32a7.84,7.84,0,0,0,1.66.53c.29.08.57.17.86.24l.9.12.91.14c.31,0,.63,0,.95,0,5.08.25,11-1.47,16.35-4.13a37.11,37.11,0,0,0,13.21-11c.91-1.2,1.7-2.37,2.71-3.87l3-4.39c2-2.94,4-5.81,6.11-8.7,1-1.45,2.08-2.87,3.15-4.29l3.21-4.26c2.21-2.8,4.39-5.62,6.69-8.35,1.12-1.39,2.27-2.75,3.43-4.09s2.31-2.7,3.48-4c2.31-2.66,4.65-5.24,6.66-7.68.47-.59,1-1.23,1.42-1.78s.84-1.14,1.16-1.65l.44-.75a4.35,4.35,0,0,0,.39-.72c.09-.23.19-.45.29-.67l.16-.33.08-.34a6.26,6.26,0,0,0,.32-1.4c0-.25.07-.5.12-.76a8.15,8.15,0,0,0,0-.88,16.83,16.83,0,0,0,0-1.88l-.06-1-.12-1c-.65-5.31-3.08-10.66-6.49-15.53a64.51,64.51,0,0,0-29.07-22,47.22,47.22,0,0,0-8.44-2.33,20.1,20.1,0,0,0-3.71-.22c-1.25,0-2.84.23-4.57.42-3.5.42-7.38.75-11.08.84s-7.37,0-11-.12-7.34-.45-11-.9-7.26-1-10.79-1.68c-7-1.32-13.91-2.83-20.74-4.41-13.64-3.2-27.13-6.51-40.7-10L317,40l-10-2.7c-1.56-.4-3-.71-4.61-1l-4.84-.77c-1.61-.3-3.24-.45-4.87-.62s-3.25-.39-4.89-.43a139.21,139.21,0,0,0-39.33,3.29c-13.06,2.86-26,7.28-39.15,11.76s-26,9.09-38.3,14.69a184.8,184.8,0,0,0-34.8,20.16,123.64,123.64,0,0,0-27.6,28.42,116.18,116.18,0,0,0-16.48,36c-3.42,12.88-4.51,26.38-4.48,40.08,0,3.43,0,6.88.11,10.35s.25,6.82.39,10.23c.51,6.79,1.18,13.57,2.34,20.3s2.55,13.42,4.24,20,3.84,13.15,6.14,19.62,5,12.83,7.76,19.14,5.8,12.55,8.85,18.79c6.18,12.49,11.83,25.21,18.49,37.33A113.53,113.53,0,0,0,147.33,362c4.36,5.31,9.56,10.08,15.9,13-6.52-2.53-12.13-7-16.85-12.21a116.14,116.14,0,0,1-12.45-16.91c-3.69-5.95-7.06-12.07-10.39-18.19l-10-18.33c-3.35-6.1-6.69-12.25-9.77-18.54s-6-12.69-8.68-19.2-5-13.17-7.12-19.92-3.87-13.61-5.21-20.57a207.19,207.19,0,0,1-3.12-21c-.26-3.53-.54-7.11-.74-10.61s-.32-7-.43-10.5c-.47-14.08.19-28.58,3.48-42.73a123,123,0,0,1,17.08-39.93,135,135,0,0,1,29.56-31.86A196.43,196.43,0,0,1,165.39,52a414.63,414.63,0,0,1,39.32-15.85c13.06-4.66,26.45-9.54,40.56-12.78a154.3,154.3,0,0,1,43.49-4.1c1.84,0,3.67.27,5.5.42s3.67.33,5.49.64,3.64.52,5.46.82,3.77.74,5.59,1.2L321,25.06l10,2.56C344.42,31,358,34.17,371.42,37.23c6.73,1.52,13.44,3,20.07,4.22,3.31.6,6.59,1.12,9.83,1.51s6.46.64,9.79.78,6.62.19,9.85.08,6.31-.35,9.72-.76c1.72-.19,3.58-.45,5.81-.53a36.28,36.28,0,0,1,6.68.38c1.05.18,2.13.35,3.1.59s2,.46,2.94.73c1.92.52,3.78,1.15,5.62,1.83A82.1,82.1,0,0,1,475,57.24a76,76,0,0,1,16.28,16.61,57.65,57.65,0,0,1,5.9,10.56,45,45,0,0,1,3.31,12.11l.19,1.6.09,1.61a30.76,30.76,0,0,1,0,3.33,14.65,14.65,0,0,1-.1,1.72l-.25,1.82a21.9,21.9,0,0,1-.87,3.67l-.28.92-.37.86-.76,1.71a12.84,12.84,0,0,1-.85,1.57l-.9,1.49c-.6,1-1.22,1.73-1.85,2.61s-1.22,1.52-1.84,2.29c-2.43,2.91-4.78,5.46-7.05,8q-1.73,1.92-3.38,3.85c-1.12,1.28-2.22,2.56-3.3,3.87-2.19,2.58-4.28,5.25-6.4,7.89l-3.09,4c-1,1.35-2.06,2.7-3.05,4.09-2,2.76-4,5.5-5.94,8.33l-2.92,4.22c-.94,1.37-2.09,3.09-3.3,4.64a51.91,51.91,0,0,1-18.71,15.25,60.14,60.14,0,0,1-11.23,4.12,41.5,41.5,0,0,1-12.58,1.3c-.55,0-1.1,0-1.65-.1l-1.68-.25-1.67-.28c-.55-.12-1.11-.29-1.66-.44a21.38,21.38,0,0,1-3.28-1.09l-1.61-.69-.8-.36-1-.55a27.1,27.1,0,0,1-5.49-4.57c-1.38-1.44-2.59-2.81-3.76-4.16l-3.43-4-1.69-2c-.59-.71-1.19-1.39-1.77-2.11a110,110,0,0,1-6.62-8.92c-1-1.5-1.91-2.91-2.74-4a19.57,19.57,0,0,0-2.63-3,24.15,24.15,0,0,0-6.69-4.46c-5.06-2.32-11.29-3.25-17.92-3.71-3.29-.23-6.9-.41-10-.49s-6.44.12-9.65.43a94.44,94.44,0,0,0-19.07,4c-1.58.51-3.15,1-4.75,1.59l-2.41.86-2.31.86c-3.06,1.19-6.08,2.49-9,3.94a120.66,120.66,0,0,0-16.94,10.31c-2.72,2-5.4,4-8.12,6.16s-5.42,4.26-8.06,6.42A221.6,221.6,0,0,0,226.14,209a112.63,112.63,0,0,0-11.49,16.29c-.43.68-.83,1.47-1.32,2.3s-1,1.65-1.51,2.46a45.39,45.39,0,0,1-3.53,4.67,40.19,40.19,0,0,1-8.91,7.64,43.28,43.28,0,0,1-10.52,4.83,48.34,48.34,0,0,1-11.25,2.09,44,44,0,0,1-5.85-.07c-1-.13-2-.22-2.95-.4s-2-.39-2.92-.68a45.64,45.64,0,0,1-10.32-4.66,34.61,34.61,0,0,0-4.18-2.09,13.63,13.63,0,0,0-3.95-.91c-.67,0-1.36,0-2.05,0s-1.39.17-2.17.32a38.43,38.43,0,0,0-4.63,1.22,39.44,39.44,0,0,0-4.41,1.78,29.68,29.68,0,0,0-4,2.37A20.66,20.66,0,0,0,124,252.7c-.33.65-.77,1.31-1,2a14.68,14.68,0,0,0-.69,2,22.1,22.1,0,0,0-.61,4.55,46.8,46.8,0,0,0,.77,9.8,63.83,63.83,0,0,0,2.44,9.73,81.3,81.3,0,0,0,3.75,9.44,101.68,101.68,0,0,0,10.48,17.54,167.23,167.23,0,0,0,13.46,15.67,86.14,86.14,0,0,0,7.45,7.12,30.46,30.46,0,0,0,8.64,5.28,14.2,14.2,0,0,0,9.89.08A19.45,19.45,0,0,0,186.62,329.68Z" transform="translate(-78.38 -19.09)"/><path class="cls-5" d="M392.53,243.34c6.14,10.07,13.42,17.73,21.31,25.42,3.92,3.87,8,7.64,12,12.13,1,1.09,2,2.34,3,3.57s2,2.8,2.74,3.87a90.55,90.55,0,0,1,4.72,7.78,48.32,48.32,0,0,1,3.83,9.23,26.86,26.86,0,0,1,.87,11.75,18.11,18.11,0,0,1-2.71,6.78,19,19,0,0,1-4.68,4.74,28,28,0,0,1-9.93,4.3,47.83,47.83,0,0,1-9.37,1.2,70.52,70.52,0,0,1-9-.26,85.15,85.15,0,0,1-17.27-3.39c2.82-.9,5.64-1.61,8.42-2.32s5.53-1.39,8.22-2.12a88.81,88.81,0,0,0,15-5.06,17.86,17.86,0,0,0,5.11-3.39,4.48,4.48,0,0,0,1-1.49,4,4,0,0,0,.17-1.14,15.07,15.07,0,0,0-1-5,45.75,45.75,0,0,0-2.84-6.35c-1.16-2.21-2.51-4.45-3.93-6.83-.77-1.33-1.33-2.16-2-3.18s-1.4-2-2.21-3.13c-3.12-4.27-6.74-8.85-10-13.75a82.85,82.85,0,0,1-8.35-15.82A45,45,0,0,1,392.53,243.34Z" transform="translate(-78.38 -19.09)"/></svg>